<svg width="37" height="37" viewBox="0 0 37 37" fill="none" xmlns="http://www.w3.org/2000/svg">
<path d="M19.7863 20.1341L14.3954 29.3669L9.00448 20.1341H19.7863ZM21.2305 19.3088H7.55444L14.3954 31L21.2305 19.3088Z" fill="#263238"/>
<path d="M29.1591 8.65038L34.55 17.8833H23.7681L29.1591 8.65038ZM29.1591 7L22.3181 18.6912H36L29.1591 7Z" fill="#263238"/>
<path d="M1 7L6.7359 17.3409L13.0038 7.25966L1 7Z" fill="#4CAF4F"/>
<path d="M14.3955 7.90576L20.4121 18.1889H8.36728L14.3955 7.90576Z" fill="#4CAF4F"/>
<path d="M21.9615 20.4341L27.9839 31H15.6526L21.7744 20.4341H21.9615Z" fill="#4CAF4F"/>
<path d="M23.2653 19.7935L29.1591 30.1978L35.1347 19.7935H23.2653Z" fill="#4CAF4F"/>
</svg>
